<?xml version="1.0" encoding="UTF-8" standalone="no"?>
<!-- Created with Inkscape (http://www.inkscape.org/) -->

<svg
   width="177.94943mm"
   height="143.57462mm"
   viewBox="0 0 177.94943 143.57462"
   version="1.1"
   id="svg1"
   xml:space="preserve"
   xmlns="http://www.w3.org/2000/svg"
   xmlns:svg="http://www.w3.org/2000/svg"><defs
     id="defs1" /><g
     id="layer1"
     transform="translate(162.86551,-236.04173)"><path
       id="path216"
       style="font-size:24.9217px;line-height:41.5422px;font-family:'World of Water';-inkscape-font-specification:'World of Water';font-variant-ligatures:no-contextual;font-variant-caps:small-caps;letter-spacing:0px;fill:#ffffff;fill-opacity:1;stroke-width:20.1383;stroke-linejoin:round"
       d="m -39.177511,236.04192 c -4.68719,0 -8.67142,0.63549 -11.95247,1.90775 -3.21406,1.27222 -5.85921,3.01363 -7.93498,5.22333 -2.00878,2.20969 -3.48199,4.85484 -4.41946,7.93498 -0.93743,3.01319 -1.40578,6.32894 -1.40578,9.94477 v 6.76247 l -10.74244,-30.56742 h -12.55438 l -12.506469,35.58666 V 237.2478 h -14.56413 l -16.27199,31.43799 -16.26984,-31.43799 h -15.06606 v 73.32474 l 0.0875,0.004 v 69.03863 h 15.06605 l 16.26985,-31.43799 16.27198,31.43799 h 14.56414 34.078829 v -11.95251 h -32.743816 v -12.59182 l 31.637886,-0.077 v -11.71715 l -31.637886,-0.0322 v -21.9847 h 34.445336 l -0.0915,33.3457 c -0.008,3.61579 0.4684,6.96458 1.40583,10.04476 0.93743,3.0132 2.41059,5.6253 4.41942,7.83499 2.07576,2.20969 4.72092,3.95115 7.93498,5.22337 3.28104,1.27222 7.26528,1.90775 11.95247,1.90775 3.41497,0 6.6296,-0.5365 9.64279,-1.60786 3.0132,-1.13833 5.62325,-2.71052 7.83294,-4.71931 2.27663,-2.00878 4.0511,-4.42083 5.32332,-7.23316 1.27222,-2.87927 1.90984,-6.02578 1.90984,-9.44075 0,-2.14267 -0.30106,-4.2514 -0.9039,-6.32717 -2.91332,-11.46123 -13.43833,-17.23287 -24.50685,-17.6111 -4.12671,0.13017 -9.0198,2.06109 -10.75493,3.55304 v -16.10533 c 12.37883,0.003 15.60901,5.00586 10.99444,11.91499 2.84389,-0.13985 7.93358,0.80149 12.42107,2.77412 2.11861,-2.88052 3.2272,-6.41744 3.31147,-10.04057 -0.62485,-13.85607 -15.74273,-15.54606 -28.92627,-15.59092 l -0.002,0.002 c -4.39451,-0.0161 -8.57301,0.15315 -11.92954,0.11446 v 0.008 h -35.813679 -12.95632 v 46.40406 l -18.07974,-34.14961 -17.87766,34.14961 V 309.3068 h -0.0875 v -48.15423 l 17.87767,34.14965 18.07973,-34.14965 v 46.40201 h 12.95632 49.769699 0.29582 v -27.5205 c 1.47313,0.93743 3.18154,1.67404 5.12338,2.20973 2.00878,0.5355 4.31971,0.80391 6.93113,0.80391 3.68282,0 6.99647,-0.63544 9.94268,-1.9077 2.94626,-1.33921 5.45729,-3.11363 7.53305,-5.32332 2.14271,-2.20969 3.78301,-4.72072 4.92135,-7.53305 1.13833,-2.81229 1.7078,-5.7257 1.7078,-8.73889 0,-3.81674 -0.63552,-7.1634 -1.90774,-10.04267 -1.27222,-2.94626 -3.04669,-5.42428 -5.32332,-7.43306 -2.20969,-2.00879 -4.82184,-3.515 -7.83504,-4.51941 -3.01319,-1.00441 -6.22778,-1.50787 -9.64275,-1.50787 z m 0.40182,10.84867 c 3.08017,0 5.62421,1.07079 7.633,3.21354 2.07576,2.14271 3.11358,5.28926 3.11358,9.4408 0,3.88364 -0.93674,6.96418 -2.8116,9.24081 -1.8749,2.27663 -4.45194,3.41558 -7.73299,3.41558 -2.20965,0 -4.35345,-0.46836 -6.42921,-1.40579 -2.07577,-0.93747 -3.95131,-2.44574 -5.6253,-4.5215 v -5.22128 c 0,-4.95503 1.03786,-8.53899 3.11362,-10.74868 2.07577,-2.27663 4.98914,-3.41348 8.7389,-3.41348 z m -43.28423,9.94268 12.15241,38.76901 h -24.40686 z m 76.8152699,19.9062 -0.008,0.0121 c -0.30428,-0.008 -0.60626,2.4e-4 -0.9101,0.008 v 0.004 c -0.57653,-0.0161 -1.15458,-0.008 -1.7307,0.0322 -11.6556499,0.98591 -20.3099799,11.22518 -19.3417999,22.88239 0.93807,10.93073 14.86547,35.32978 21.0724999,42.78645 0.0121,0.0161 0.0242,0.0322 0.0322,0.0363 0.001,4.8e-4 0.004,0.002 0.004,0.002 h 0.002 0.002 0.002 c 9.6e-4,4e-5 0.004,8e-5 0.008,0 h 0.002 0.002 c 0.0121,-0.004 0.0282,-0.0202 0.0439,-0.0403 6.20698,-7.45672 20.1370401,-31.87229 21.0745901,-42.80314 0.96859,-11.65721 -7.6882501,-21.89434 -19.3439001,-22.88025 -0.30428,-0.0161 -0.61021,-0.0323 -0.91429,-0.0415 z m -0.0459,6.625 h 0.002 a 12.721456,12.721456 0 0 1 12.0816,11.61715 l 0.008,0.079 a 12.721456,12.721456 0 0 1 -11.64835,13.69152 12.721456,12.721456 0 0 1 -13.7102499,-11.6276 12.721456,12.721456 0 0 1 11.6067199,-13.72689 12.721456,12.721456 0 0 1 1.65989,-0.0323 z M -39.171501,343.6954 c 7.69135,0.11003 14.40026,6.95778 10.31132,17.84018 -0.5357,1.40619 -1.30531,2.64415 -2.30968,3.71551 -0.93747,1.07135 -2.07431,1.94204 -3.41352,2.61166 -1.27222,0.60252 -2.67941,0.9039 -4.21948,0.9039 -3.74976,0 -6.66312,-1.10384 -8.73889,-3.31353 -2.07577,-2.27663 -3.11363,-5.89368 -3.11363,-10.84867 v -5.14837 c 3.15554,-4.02716 7.45507,-5.81839 11.48388,-5.76068 z" /></g></svg>
